<svg width="14" height="14" viewBox="0 0 14 14" fill="none" xmlns="http://www.w3.org/2000/svg">
<path d="M2.9366 13.8176C2.88608 13.8176 2.83555 13.8012 2.79308 13.7687C2.7179 13.7113 2.68031 13.6142 2.69618 13.5182L3.45065 8.90265L0.255336 5.63429C0.188945 5.56615 0.165025 5.46445 0.193582 5.37198C0.222384 5.27925 0.298783 5.21162 0.390803 5.19753L4.80629 4.52408L6.78118 0.324823C6.82218 0.237216 6.90713 0.181885 6.99988 0.181885C7.09287 0.181885 7.17782 0.237216 7.21858 0.324823L9.19322 4.52408L13.609 5.19753C13.701 5.21162 13.7771 5.27899 13.8062 5.37198C13.8347 5.46445 13.8111 5.5664 13.7444 5.63429L10.5491 8.90316L11.3033 13.5184C11.319 13.6145 11.2814 13.7116 11.2064 13.769C11.1313 13.8268 11.0314 13.8343 10.9492 13.7884L6.99988 11.6095L3.0501 13.7884C3.01447 13.8079 2.97541 13.8176 2.9366 13.8176ZM0.950244 5.62968L3.88316 8.6301C3.94052 8.68876 3.96688 8.7738 3.95322 8.8568L3.26075 13.0932L6.88638 11.0931C6.95741 11.0536 7.0421 11.0536 7.11362 11.0931L10.7388 13.0932L10.0465 8.8568C10.0329 8.7738 10.0592 8.68901 10.1166 8.6301L13.0495 5.62968L8.99649 5.01156C8.91692 4.99952 8.84833 4.947 8.81269 4.87144L6.99988 1.01723L5.18706 4.87169C5.15143 4.94726 5.08284 4.99977 5.00327 5.01181L0.950244 5.62968Z" fill="#4F4F4F"/>
</svg>
