<svg width="19" height="15" viewBox="0 0 19 15" fill="none" xmlns="http://www.w3.org/2000/svg">
<path d="M9.61554 5.66488C11.2682 5.66488 12.6079 4.39675 12.6079 2.83244C12.6079 1.26813 11.2682 0 9.61554 0C7.96288 0 6.62314 1.26813 6.62314 2.83244C6.62314 4.39675 7.96288 5.66488 9.61554 5.66488Z" fill="white"/>
<path d="M18.449 2.05922C17.7896 1.52951 16.806 1.60711 16.2488 2.23024L11.8437 7.14357C11.2757 6.59741 10.4897 6.25601 9.61548 6.25601C8.67779 6.25601 7.8466 6.65498 7.27494 7.27431L2.75247 2.22961C2.19239 1.60732 1.20903 1.53035 0.550714 2.05859C-0.106492 2.58725 -0.186917 3.51951 0.371152 4.14201L6.24925 10.6976C6.32255 10.7801 6.40609 10.852 6.49364 10.9157V15H12.7389V10.709C12.7436 10.7046 12.748 10.7018 12.7531 10.6974L18.629 4.1418C19.1864 3.52015 19.1071 2.58788 18.449 2.05922ZM11.7393 9.937C11.7201 9.9933 11.6994 10.0871 11.6644 10.1765C11.6354 10.2676 11.6005 10.3771 11.5593 10.5036C11.5225 10.6261 11.4793 10.7518 11.4341 10.876C11.3899 11.0036 11.3425 11.1409 11.2877 11.2651C11.2329 11.3914 11.1772 11.5306 11.1086 11.6518C10.9789 11.9057 10.8158 12.1482 10.622 12.3776C10.5273 12.4961 10.4177 12.6007 10.3079 12.711C10.1983 12.8186 10.0751 12.9175 9.95144 13.0155C9.82668 13.1094 9.69702 13.2003 9.56112 13.2827C9.42545 13.3628 9.29111 13.44 9.15499 13.5077C9.01932 13.5754 8.8852 13.6349 8.76022 13.6867C8.67512 13.7228 8.59091 13.7532 8.51361 13.7791L8.24025 13.7806C8.25585 13.7365 8.27233 13.691 8.29016 13.6427C8.41068 13.3274 8.59403 12.9118 8.81815 12.5177C8.92976 12.3192 9.05608 12.1294 9.18106 11.9548C9.24812 11.8711 9.31228 11.7904 9.3731 11.7136C9.44016 11.64 9.50409 11.5706 9.56358 11.5072C9.62751 11.4496 9.68521 11.3954 9.73735 11.3484C9.78859 11.2986 9.84294 11.2668 9.88238 11.2345C9.96592 11.1752 10.0136 11.1407 10.0136 11.1407C10.0136 11.1407 9.96369 11.171 9.87636 11.2256C9.83181 11.2547 9.77589 11.2822 9.72108 11.3281C9.66494 11.3728 9.601 11.4211 9.53083 11.4768C9.46533 11.5358 9.39493 11.601 9.32163 11.6693C9.25257 11.744 9.1795 11.8209 9.10509 11.9011C8.96318 12.0685 8.81882 12.2526 8.68916 12.4453C8.42694 12.8306 8.20594 13.2399 8.05445 13.553C8.02549 13.6165 7.99809 13.6749 7.97336 13.7283C7.95687 13.6893 7.93838 13.6452 7.92412 13.5986C7.89204 13.4988 7.85217 13.3761 7.82655 13.2414C7.80048 13.1051 7.78355 12.9577 7.77664 12.799C7.76862 12.4843 7.80716 12.1292 7.92724 11.7815C7.98182 11.6054 8.06292 11.4323 8.15738 11.2634C8.24894 11.0945 8.36902 10.9336 8.49177 10.7784C8.62433 10.6253 8.76891 10.4825 8.92174 10.3512C9.08482 10.2236 9.24812 10.1059 9.42768 10.01C9.61214 9.91697 9.78591 9.83093 9.97684 9.77695C10.1684 9.72191 10.3475 9.67868 10.5238 9.65717C10.7051 9.64283 10.8729 9.64051 11.0195 9.64853C11.1665 9.65422 11.312 9.69618 11.4196 9.72085C11.5263 9.74257 11.6163 9.78285 11.6735 9.80309C11.7301 9.82481 11.7635 9.84211 11.7635 9.84211C11.7635 9.84211 11.7562 9.87479 11.7393 9.937Z" fill="white"/>
</svg>
