<svg width="17" height="21" viewBox="0 0 17 21" fill="none" xmlns="http://www.w3.org/2000/svg">
<path d="M14.6472 13.7898C12.5912 12.9767 11.3576 12.1472 11.3576 12.1472L9.77277 17.3309L9.55719 18.0325L8.84659 15.9524C10.4794 13.5999 8.72283 13.4885 8.41943 13.4844H8.41544H8.41144H8.40745H8.40346C8.10006 13.4885 6.34351 13.5999 7.9763 15.9524L7.2657 18.0325L7.05012 17.3309L5.46524 12.1472C5.46524 12.1472 4.23167 12.9767 2.17572 13.7898C-0.0958115 14.64 0.0439135 16.5674 -6.09153e-08 20.1828H8.39947H8.41943H16.8189C16.771 16.5674 16.9107 14.64 14.6472 13.7898Z" fill="white"/>
<path d="M8.47137 4.26779L9.39356 3.31442C8.25979 2.91821 6.95835 3.18648 6.05613 4.11921C4.79062 5.42752 4.79062 7.55301 6.05613 8.86132C7.32164 10.1696 9.37759 10.1696 10.6431 8.86132C11.5453 7.92858 11.8048 6.58313 11.4216 5.41102L10.4994 6.36439C10.5313 6.97521 10.3237 7.59841 9.87261 8.06478C9.03027 8.93561 7.66895 8.93561 6.82661 8.06478C5.98427 7.19395 5.98427 5.78659 6.82661 4.91576C7.27772 4.44939 7.88054 4.23477 8.47137 4.26779Z" fill="white"/>
<path d="M12.216 10.4872C14.0005 8.64239 14.2959 5.84005 13.0942 3.67742L12.212 4.58952C12.9665 6.23213 12.687 8.25857 11.3736 9.6164C9.70092 11.3457 6.99425 11.3457 5.32154 9.6164C3.64883 7.88712 3.64883 5.08891 5.32154 3.35963C6.63895 2.00179 8.5951 1.70876 10.184 2.49292L11.0662 1.58082C8.97834 0.342672 6.26368 0.643955 4.4792 2.4888C2.3434 4.69683 2.3434 8.27508 4.4792 10.4872C6.61899 12.6953 10.0802 12.6953 12.216 10.4872Z" fill="white"/>
<path d="M8.64708 5.37769C8.55127 5.3488 8.45147 5.33642 8.34767 5.33642C7.72889 5.33642 7.22987 5.85231 7.22987 6.49202C7.22987 7.13173 7.72889 7.64763 8.34767 7.64763C8.96646 7.64763 9.46547 7.13173 9.46547 6.49202C9.46547 6.38472 9.44951 6.28154 9.42555 6.18249L12.5434 2.95917L13.0464 3.02934L14.6233 1.39911L13.4297 1.23402L13.27 0L11.6971 1.63023L11.7649 2.15025L8.64708 5.37769Z" fill="white"/>
</svg>
