<svg width="9" height="11" viewBox="0 0 9 11" fill="none" xmlns="http://www.w3.org/2000/svg">
<path d="M7.83788 7.51562C6.73772 7.07249 6.07762 6.62036 6.07762 6.62036L5.22953 9.44559L5.11417 9.82798L4.73392 8.69429C5.60764 7.41214 4.6677 7.35141 4.50534 7.34916H4.5032H4.50107H4.49893H4.4968C4.33444 7.35141 3.39449 7.41214 4.26822 8.69429L3.88797 9.82798L3.77261 9.44559L2.92452 6.62036C2.92452 6.62036 2.26442 7.07249 1.16425 7.51562C-0.0512699 7.97899 0.0234987 9.02945 -3.25965e-08 10.9999H4.49466H4.50534H9C8.97437 9.02945 9.04913 7.97899 7.83788 7.51562Z" fill="#A0A0A0"/>
<path d="M4.53274 2.32614L5.02621 1.80653C4.41952 1.59059 3.72311 1.7368 3.24031 2.24516C2.56312 2.95822 2.56312 4.11665 3.24031 4.8297C3.9175 5.54276 5.01767 5.54276 5.69486 4.8297C6.17765 4.32134 6.31651 3.58804 6.11143 2.94922L5.61795 3.46882C5.63504 3.80173 5.52396 4.14139 5.28256 4.39557C4.83182 4.87019 4.10336 4.87019 3.65261 4.39557C3.20186 3.92095 3.20186 3.15391 3.65261 2.67929C3.89401 2.42511 4.21658 2.30814 4.53274 2.32614Z" fill="#A0A0A0"/>
<path d="M6.53725 5.71567C7.49215 4.7102 7.65023 3.18287 7.00722 2.00419L6.53511 2.5013C6.93886 3.39656 6.78933 4.50101 6.0865 5.24105C5.19142 6.18355 3.74304 6.18355 2.84795 5.24105C1.95287 4.29856 1.95287 2.77348 2.84795 1.83099C3.55292 1.09094 4.59968 0.931235 5.4499 1.35862L5.92201 0.861504C4.80475 0.186689 3.35211 0.350894 2.39721 1.35637C1.25432 2.55979 1.25432 4.51 2.39721 5.71567C3.54223 6.91909 5.39436 6.91909 6.53725 5.71567Z" fill="#A0A0A0"/>
<path d="M4.62751 2.93095C4.57624 2.9152 4.52283 2.90845 4.46729 2.90845C4.13617 2.90845 3.86914 3.18963 3.86914 3.53828C3.86914 3.88694 4.13617 4.16811 4.46729 4.16811C4.79841 4.16811 5.06544 3.88694 5.06544 3.53828C5.06544 3.4798 5.05689 3.42356 5.04408 3.36958L6.71248 1.61281L6.98165 1.65105L7.82547 0.762541L7.18673 0.672566L7.10128 0L6.2596 0.888507L6.29591 1.17193L4.62751 2.93095Z" fill="#A0A0A0"/>
</svg>
