<svg viewBox="0 0 20 21" xmlns="http://www.w3.org/2000/svg" _ngcontent-serverapp-c180="" aria-hidden="true" style="width: 13px; height: 15px; fill: rgb(160, 160, 160);">
<path d="M11.8642 17.6363V18.2259C11.8642 18.6952 11.523 19.0855 11.0791 19.152L10.9352 19.6877C10.8571 19.9783 10.5981 20.1818 10.298 20.1818H8.87146C8.57136 20.1818 8.31237 19.9783 8.23426 19.6877L8.09449 19.152C7.64639 19.0814 7.30518 18.6952 7.30518 18.2218V17.6321C7.30518 17.3165 7.55595 17.0632 7.86839 17.0632H11.301C11.6135 17.0673 11.8642 17.3207 11.8642 17.6363ZM14.5076 9.6881C14.5076 11.0294 13.9814 12.2461 13.1263 13.1389C12.4768 13.82 12.0575 14.6879 11.9177 15.6139C11.856 16.0126 11.5148 16.3074 11.1119 16.3074H8.05749C7.65873 16.3074 7.31341 16.0167 7.25585 15.6181C7.11197 14.692 6.68854 13.8117 6.03901 13.1348C5.20037 12.2544 4.67828 11.0585 4.66595 9.74209C4.63717 6.97643 6.81598 4.73816 9.55388 4.7174C12.2877 4.69663 14.5076 6.93075 14.5076 9.6881ZM10.1418 6.67744C10.1418 6.37015 9.89509 6.11684 9.58677 6.11684C7.62995 6.11684 6.0349 7.72391 6.0349 9.70471C6.0349 10.012 6.28155 10.2653 6.58988 10.2653C6.89409 10.2653 7.14486 10.0162 7.14486 9.70471C7.14486 8.34265 8.24248 7.23805 9.58677 7.23805C9.89509 7.23805 10.1418 6.98889 10.1418 6.67744ZM9.58677 3.08541C9.89098 3.08541 10.1418 2.83625 10.1418 2.5248V0.560606C10.1418 0.253311 9.89509 0 9.58677 0C9.27845 0 9.03179 0.249158 9.03179 0.560606V2.5248C9.03179 2.83625 9.28256 3.08541 9.58677 3.08541ZM3.05445 9.68395C3.05445 9.37665 2.80779 9.12334 2.49947 9.12334H0.55498C0.250769 9.12334 7.84104e-09 9.3725 7.84104e-09 9.68395C7.84104e-09 9.99125 0.246658 10.2446 0.55498 10.2446H2.49947C2.80779 10.2446 3.05445 9.9954 3.05445 9.68395ZM18.6186 9.12334H16.6741C16.3699 9.12334 16.1191 9.3725 16.1191 9.68395C16.1191 9.99125 16.3658 10.2446 16.6741 10.2446H18.6186C18.9228 10.2446 19.1735 9.9954 19.1735 9.68395C19.1735 9.37665 18.9269 9.12334 18.6186 9.12334ZM4.18496 14.3515L2.80779 15.7426C2.58991 15.9627 2.58991 16.3157 2.80779 16.5358C2.91467 16.6438 3.05856 16.6978 3.19833 16.6978C3.3381 16.6978 3.48199 16.6438 3.58887 16.5358L4.96605 15.1447C5.18393 14.9246 5.18393 14.5716 4.96605 14.3515C4.75228 14.1314 4.39873 14.1314 4.18496 14.3515ZM14.598 5.18249C14.7378 5.18249 14.8817 5.12851 14.9886 5.02054L16.3658 3.62941C16.5836 3.40932 16.5836 3.05634 16.3658 2.83625C16.1479 2.61616 15.7984 2.61616 15.5806 2.83625L14.2034 4.22739C13.9855 4.44747 13.9855 4.80045 14.2034 5.02054C14.3144 5.12851 14.4542 5.18249 14.598 5.18249ZM4.18496 5.01639C4.29185 5.12435 4.43573 5.17834 4.5755 5.17834C4.71528 5.17834 4.85916 5.12435 4.96605 5.01639C5.18393 4.7963 5.18393 4.44332 4.96605 4.22323L3.58887 2.8321C3.37099 2.61201 3.02156 2.61201 2.80368 2.8321C2.5858 3.05219 2.5858 3.40516 2.80368 3.62525L4.18496 5.01639ZM14.9886 14.3515C14.7707 14.1314 14.4213 14.1314 14.2034 14.3515C13.9855 14.5716 13.9855 14.9246 14.2034 15.1447L15.5806 16.5358C15.6874 16.6438 15.8313 16.6978 15.9711 16.6978C16.1109 16.6978 16.2548 16.6438 16.3616 16.5358C16.5795 16.3157 16.5795 15.9627 16.3616 15.7426L14.9886 14.3515Z" _ngcontent-serverapp-c180=""></path>
</svg>