<svg width="192" height="36" viewBox="0 0 192 36" fill="none" xmlns="http://www.w3.org/2000/svg">
<path d="M27.147 0.00402832H0.00531006V2.46476H27.147V0.00402832Z" fill="#209CFF"/>
<path d="M27.1465 24.288L1.18842 8.81946L0.00135648 10.7988L25.9594 26.2673L27.1465 24.288Z" fill="#209CFF"/>
<path d="M27.1468 33.5393H0.00512695V36H27.1468V33.5393Z" fill="#209CFF"/>
<path d="M2.47736 10.8048L2.47736 0.00854492L0.00875688 0.00854492L0.00875688 10.8048H2.47736Z" fill="#209CFF"/>
<path d="M27.144 35.9976L27.144 24.2866H24.6754L24.6754 35.9976H27.144Z" fill="#209CFF"/>
<path d="M27.1423 10.9509L27.1423 0L24.6737 0L24.6737 10.9509H27.1423Z" fill="#209CFF"/>
<path d="M2.47845 35.9906L2.47845 25.0397H0.00985646L0.00985646 35.9906H2.47845Z" fill="#209CFF"/>
<path d="M21.0244 15.5782L27.1478 10.962L25.6041 8.92743L19.4808 13.5436L21.0244 15.5782Z" fill="#209CFF"/>
<path d="M1.58259 27.1307L7.81934 22.4291L6.23672 20.3431L-1.70617e-05 25.0447L1.58259 27.1307Z" fill="#209CFF"/>
<path d="M35.0953 7.16713C35.0953 6.93523 35.1729 6.7291 35.328 6.5745C35.4831 6.40701 35.664 6.32971 35.8579 6.32971H53.1122C53.3449 6.32971 53.5258 6.40701 53.668 6.5745C53.8102 6.74198 53.8748 6.93523 53.8748 7.16713V8.53277C53.8748 8.76467 53.7972 8.97081 53.668 9.12541C53.5258 9.29289 53.3449 9.37019 53.1122 9.37019H38.417V28.3603C38.417 28.5665 38.3394 28.7468 38.1843 28.9143C38.0292 29.0818 37.8483 29.1591 37.6544 29.1591H35.8708C35.6769 29.1591 35.496 29.0818 35.3409 28.9143C35.1858 28.7468 35.1083 28.5665 35.1083 28.3603V7.16713H35.0953ZM40.7563 17.6542C40.7563 17.4223 40.8339 17.2291 40.989 17.0745C41.1441 16.9327 41.3379 16.8554 41.5576 16.8554H51.7422C51.9749 16.8554 52.1558 16.9327 52.3109 17.0745C52.466 17.2162 52.5435 17.4094 52.5435 17.6542V18.9812C52.5435 19.2131 52.466 19.4192 52.3109 19.5738C52.1558 19.7413 51.9619 19.8186 51.7422 19.8186H41.5576C41.325 19.8186 41.1441 19.7413 40.989 19.5738C40.8339 19.4064 40.7563 19.2131 40.7563 18.9812V17.6542Z" fill="#E5EFF3"/>
<path d="M67.1223 10.4008C67.9107 10.4008 68.6474 10.5425 69.3195 10.8388C69.9916 11.1351 70.5603 11.5345 71.0385 12.0498C71.5167 12.5652 71.9044 13.1578 72.1888 13.8406C72.4731 14.5234 72.6153 15.2578 72.6153 16.0566C72.6153 17.4737 72.2146 18.6719 71.4262 19.6639C70.6249 20.6559 69.6168 21.3001 68.4019 21.5835L73.2615 28.3989C73.352 28.5406 73.3908 28.6952 73.3908 28.8369C73.3908 29.043 73.2744 29.1461 73.0547 29.1461H70.7024C70.612 29.1461 70.5215 29.1203 70.431 29.0559C70.3276 28.9915 70.2501 28.9271 70.1984 28.8369L65.1319 21.751H61.9008C61.7069 21.751 61.526 21.6737 61.3838 21.532C61.2416 21.3903 61.177 21.2099 61.177 21.0038V19.8572C61.177 19.651 61.2416 19.4707 61.3838 19.3289C61.526 19.1872 61.694 19.1099 61.9008 19.1099H67.006C67.859 19.1099 68.557 18.8265 69.0869 18.2725C69.6297 17.7185 69.9011 16.9842 69.9011 16.1081C69.9011 15.2836 69.6168 14.5879 69.0481 14.0339C68.4794 13.4799 67.7944 13.1965 67.006 13.1965H58.9152V28.4246C58.9152 28.6308 58.8377 28.8111 58.7084 28.9528C58.5662 29.0946 58.3982 29.1719 58.1914 29.1719H56.6534C56.4595 29.1719 56.2786 29.0946 56.1364 28.9528C55.9942 28.8111 55.9296 28.6308 55.9296 28.4246V11.1609C55.9296 10.9547 55.9942 10.7744 56.1364 10.6327C56.2786 10.4909 56.4466 10.4136 56.6534 10.4136H67.1223V10.4008Z" fill="#E5EFF3"/>
<path d="M79.6851 26.3762H92.5968C92.7906 26.3762 92.9716 26.4535 93.1138 26.5952C93.2559 26.7369 93.3205 26.9173 93.3205 27.1234V28.4117C93.3205 28.6179 93.243 28.7982 93.1138 28.94C92.9716 29.0817 92.8036 29.159 92.5968 29.159H77.5525C77.3587 29.159 77.1906 29.0817 77.0485 28.94C76.9063 28.7982 76.8417 28.6179 76.8417 28.4117V11.148C76.8417 10.9419 76.9063 10.7615 77.0485 10.6198C77.1906 10.4781 77.3587 10.4008 77.5525 10.4008H92.4287C92.6226 10.4008 92.8036 10.4781 92.9457 10.6198C93.0879 10.7615 93.1525 10.9419 93.1525 11.148V12.4363C93.1525 12.6425 93.075 12.8228 92.9457 12.9646C92.8036 13.1063 92.6355 13.1836 92.4287 13.1836H79.698V26.3762H79.6851ZM81.9469 18.7621C81.9469 18.5559 82.0115 18.3756 82.1537 18.2339C82.2959 18.0921 82.4639 18.0148 82.6707 18.0148H91.4077C91.6016 18.0148 91.7825 18.0921 91.9247 18.2339C92.0669 18.3756 92.1315 18.5559 92.1315 18.7621V20.0504C92.1315 20.2823 92.0539 20.4756 91.9247 20.6044C91.7825 20.7332 91.6145 20.7977 91.4077 20.7977H82.6707C82.4768 20.7977 82.2959 20.7332 82.1537 20.6044C82.0115 20.4756 81.9469 20.2823 81.9469 20.0504V18.7621Z" fill="#E5EFF3"/>
<path d="M99.744 26.3762H112.656C112.85 26.3762 113.031 26.4535 113.173 26.5952C113.315 26.7369 113.38 26.9173 113.38 27.1234V28.4117C113.38 28.6179 113.302 28.7982 113.173 28.94C113.031 29.0817 112.863 29.159 112.656 29.159H97.6115C97.4176 29.159 97.2496 29.0817 97.1074 28.94C96.9653 28.7982 96.9006 28.6179 96.9006 28.4117V11.148C96.9006 10.9419 96.9653 10.7615 97.1074 10.6198C97.2496 10.4781 97.4176 10.4008 97.6115 10.4008H112.488C112.682 10.4008 112.863 10.4781 113.005 10.6198C113.147 10.7615 113.211 10.9419 113.211 11.148V12.4363C113.211 12.6425 113.134 12.8228 113.005 12.9646C112.863 13.1063 112.694 13.1836 112.488 13.1836H99.757V26.3762H99.744ZM102.006 18.7621C102.006 18.5559 102.07 18.3756 102.213 18.2339C102.355 18.0921 102.523 18.0148 102.73 18.0148H111.467C111.661 18.0148 111.841 18.0921 111.984 18.2339C112.126 18.3756 112.19 18.5559 112.19 18.7621V20.0504C112.19 20.2823 112.113 20.4756 111.984 20.6044C111.841 20.7332 111.673 20.7977 111.467 20.7977H102.73C102.536 20.7977 102.355 20.7332 102.213 20.6044C102.07 20.4756 102.006 20.2823 102.006 20.0504V18.7621Z" fill="#E5EFF3"/>
<path d="M118.058 7.1153C118.058 6.90916 118.123 6.7288 118.265 6.56131C118.407 6.39383 118.588 6.31653 118.821 6.31653H138.712C138.944 6.31653 139.125 6.39383 139.268 6.56131C139.41 6.7288 139.474 6.90916 139.474 7.1153V8.53247C139.474 9.09934 139.216 9.36989 138.712 9.36989H118.834C118.601 9.36989 118.42 9.29259 118.278 9.12511C118.136 8.95762 118.071 8.76437 118.071 8.53247V7.1153H118.058ZM127.093 12.6036C127.093 12.3717 127.17 12.1785 127.325 12.0239C127.48 11.8822 127.674 11.8049 127.894 11.8049H129.6C129.833 11.8049 130.014 11.8822 130.156 12.0239C130.298 12.1656 130.362 12.3588 130.362 12.6036V28.36C130.362 28.5919 130.285 28.7852 130.156 28.9398C130.014 29.0815 129.833 29.1588 129.6 29.1588H127.894C127.661 29.1588 127.48 29.0815 127.325 28.9398C127.17 28.798 127.093 28.6048 127.093 28.36V12.6036Z" fill="#209CFF"/>
<path d="M140.676 11.148C140.676 10.9419 140.741 10.7615 140.883 10.6198C141.025 10.4781 141.193 10.4008 141.4 10.4008H143.016C143.209 10.4008 143.39 10.4781 143.532 10.6198C143.675 10.7615 143.739 10.9419 143.739 11.148V28.4117C143.739 28.6179 143.662 28.7982 143.532 28.94C143.39 29.0817 143.222 29.159 143.016 29.159H141.4C141.206 29.159 141.025 29.0817 140.883 28.94C140.741 28.7982 140.676 28.6179 140.676 28.4117V11.148Z" fill="#209CFF"/>
<path d="M149.026 10.71C149.026 10.5038 149.129 10.4008 149.323 10.4008H151.753C151.947 10.4008 152.089 10.4781 152.179 10.6198L159.714 18.1437L167.249 10.6198C167.391 10.4781 167.547 10.4008 167.715 10.4008H169.976C170.17 10.4008 170.274 10.4781 170.274 10.6198C170.274 10.8259 170.157 11.0449 169.938 11.2897L160.529 20.7461C160.477 20.8105 160.399 20.8621 160.322 20.9265C160.154 21.0424 159.947 21.1069 159.727 21.1069C159.495 21.1069 159.301 21.0424 159.133 20.9265C159.042 20.8621 158.978 20.8105 158.926 20.7461L151.856 13.7118V28.3989C151.856 28.605 151.779 28.7854 151.649 28.9271C151.507 29.0688 151.339 29.1461 151.132 29.1461H149.775C149.581 29.1461 149.4 29.0688 149.258 28.9271C149.116 28.7854 149.051 28.605 149.051 28.3989V10.71H149.026ZM170.196 28.4117C170.196 28.6179 170.119 28.7982 169.989 28.94C169.847 29.0817 169.679 29.159 169.472 29.159H168.064C167.87 29.159 167.689 29.0817 167.547 28.94C167.404 28.7982 167.34 28.6179 167.34 28.4117V17.0872C167.34 16.9713 167.379 16.8296 167.469 16.6621C167.56 16.4946 167.65 16.34 167.766 16.1983L169.679 14.2014C169.821 14.0596 169.951 13.9823 170.067 13.9823C170.157 13.9823 170.196 14.0596 170.196 14.2014V28.4117Z" fill="#209CFF"/>
<path d="M178.365 26.3762H191.276C191.47 26.3762 191.651 26.4535 191.793 26.5952C191.935 26.7369 192 26.9173 192 27.1234V28.4117C192 28.6179 191.923 28.7982 191.793 28.94C191.651 29.0817 191.483 29.159 191.276 29.159H176.232C176.038 29.159 175.87 29.0817 175.728 28.94C175.586 28.7982 175.521 28.6179 175.521 28.4117V11.148C175.521 10.9419 175.586 10.7615 175.728 10.6198C175.87 10.4781 176.038 10.4008 176.232 10.4008H191.108C191.302 10.4008 191.483 10.4781 191.625 10.6198C191.767 10.7615 191.832 10.9419 191.832 11.148V12.4363C191.832 12.6425 191.754 12.8228 191.625 12.9646C191.483 13.1063 191.315 13.1836 191.108 13.1836H178.365V26.3762ZM180.626 18.7621C180.626 18.5559 180.691 18.3756 180.833 18.2339C180.975 18.0921 181.143 18.0148 181.35 18.0148H190.087C190.281 18.0148 190.462 18.0921 190.604 18.2339C190.746 18.3756 190.811 18.5559 190.811 18.7621V20.0504C190.811 20.2823 190.733 20.4756 190.604 20.6044C190.462 20.7332 190.294 20.7977 190.087 20.7977H181.35C181.156 20.7977 180.975 20.7332 180.833 20.6044C180.691 20.4756 180.626 20.2823 180.626 20.0504V18.7621Z" fill="#209CFF"/>
</svg>
