<svg viewBox="0 0 18 18" xmlns="http://www.w3.org/2000/svg" _ngcontent-serverapp-c52="" aria-hidden="true" style="width: 18px; height: 18px; fill: white;">
<path fill-rule="evenodd" clip-rule="evenodd" d="M16.7553 14.6475L13.024 10.936C13.0041 10.9163 12.9809 10.9025 12.9601 10.8842C13.6943 9.77633 14.1228 8.45023 14.1228 7.02414C14.1228 3.14479 10.9613 0 7.06142 0C3.16152 0 0 3.14479 0 7.02407C0 10.9033 3.16145 14.0481 7.06136 14.0481C8.4951 14.0481 9.82819 13.6219 10.9419 12.8916C10.9604 12.9121 10.9742 12.9353 10.994 12.955L14.7254 16.6666C15.2859 17.2241 16.1947 17.2241 16.7553 16.6666C17.3157 16.1091 17.3157 15.2051 16.7553 14.6475ZM7.06142 11.6131C4.51341 11.6131 2.4479 9.55854 2.4479 7.02407C2.4479 4.48953 4.51348 2.43495 7.06142 2.43495C9.6093 2.43495 11.6749 4.4896 11.6749 7.02407C11.6749 9.55854 9.6093 11.6131 7.06142 11.6131Z" _ngcontent-serverapp-c52=""></path>
</svg>