<svg width="76" height="11" viewBox="0 0 76 11" fill="none" xmlns="http://www.w3.org/2000/svg">
<path d="M5.99999 0L7.85387 3.62097L12 4.2016L8.99999 7.02012L9.70798 11L5.99999 9.12099L2.29176 11L3.00001 7.02012L0 4.2016L4.14587 3.62097L5.99999 0Z" fill="#FAC917"/>
<path d="M22 0L23.8539 3.62097L28 4.2016L25 7.02012L25.708 11L22 9.12099L18.2918 11L19 7.02012L16 4.2016L20.1459 3.62097L22 0Z" fill="#FAC917"/>
<path d="M38 0L39.8539 3.62097L44 4.2016L41 7.02012L41.708 11L38 9.12099L34.2918 11L35 7.02012L32 4.2016L36.1459 3.62097L38 0Z" fill="#FAC917"/>
<path d="M54 0L55.8539 3.62097L60 4.2016L57 7.02012L57.708 11L54 9.12099L50.2918 11L51 7.02012L48 4.2016L52.1459 3.62097L54 0Z" fill="#FAC917"/>
<path d="M70 0L71.8539 3.62097L76 4.2016L73 7.02012L73.708 11L70 9.12099L66.2918 11L67 7.02012L64 4.2016L68.1459 3.62097L70 0Z" fill="#FAC917"/>
</svg>
